#!OML:ASF X:\für Bonn\!DataBase\2005_08_10_Bjorn_Final\c3d\bjorn.ASF
:FULLY-SPECIFIED
:DEGREES
123
root -15.8506 18.9038 15.1532 189.002 45.4658 -533.511
lowerback 11.1419 1.06774 -1.84652
upperback 17.8487 4.29383 -1.1664
thorax 13.4484 3.04387 0.00487814
lowerneck 8.85 -5.07244 -0.59139
upperneck -14.129 -5.06938 11.5377
head -5.38652 -3.17268 4.07251
rclavicle 1.32391e-013 -1.04561e-013
rhumerus -17.6461 -10.0386 -89.26
rradius 64.3991
rwrist -0.740969
rhand -19.2957 20.4838
rfingers 7.12502
rthumb 7.01968 -9.37982
lclavicle 1.32391e-013 -1.04561e-013
lhumerus -12.888 -0.974832 87.4719
lradius 65.4862
lwrist -12.9045
lhand -45.7823 -16.0479
lfingers 7.12502
lthumb -18.5363 13.089
rfemur -11.9708 1.03276 12.8481
rtibia 59.3903
rfoot 4.89111 1.06571
rtoes -26.875
lfemur -29.7919 9.88352 -12.4972
ltibia 42.008
lfoot -9.09547 6.79407
ltoes -8.43706
124
root -15.8197 18.9289 15.0635 188.82 45.6604 -533.453
lowerback 11.0535 1.0472 -1.95733
upperback 17.8507 4.25627 -1.17045
thorax 13.4977 3.00699 0.0663888
lowerneck 8.74407 -5.08427 -0.634995
upperneck -13.882 -5.10498 11.6377
head -5.28505 -3.18679 4.1012
rclavicle 7.35503e-014 -5.08889e-014
rhumerus -17.9134 -10.1096 -89.2686
rradius 64.6597
rwrist -0.810679
rhand -19.2738 20.4772
rfingers 7.12502
rthumb 7.04086 -9.38571
lclavicle 7.35503e-014 -5.08889e-014
lhumerus -12.9695 -1.05811 87.45
lradius 65.6286
lwrist -12.9465
lhand -45.7464 -16.1555
lfingers 7.12502
lthumb -18.5018 12.9846
rfemur -13.1227 0.598803 12.7936
rtibia 61.5018
rfoot 6.10056 0.457419
rtoes -25.7654
lfemur -28.9575 9.86997 -12.5136
ltibia 41.6219
lfoot -9.27549 6.90711
ltoes -8.10068
125
root -15.7893 18.9534 14.9749 188.627 45.8721 -533.387
lowerback 10.955 1.00305 -2.04174
upperback 17.8337 4.18114 -1.1878
thorax 13.5309 2.954 0.0975514
lowerneck 8.77848 -5.04181 -0.752057
upperneck -13.6845 -5.06118 11.7893
head -5.22475 -3.16672 4.16011
rclavicle 2.0276e-014 1.43125e-014
rhumerus -18.2173 -10.1373 -89.2882
rradius 64.9323
rwrist -0.866311
rhand -19.2782 20.3883
rfingers 7.12502
rthumb 7.03659 -9.47475
lclavicle 2.0276e-014 1.43125e-014
lhumerus -13.0645 -1.02804 87.4093
lradius 65.699
lwrist -13.0143
lhand -45.6877 -16.3838
lfingers 7.12502
lthumb -18.4453 12.7617
rfemur -14.2583 0.117037 12.7278
rtibia 63.5996
rfoot 7.1049 0.0673176
rtoes -24.6936
lfemur -28.1197 9.86318 -12.5221
ltibia 41.2541
lfoot -9.45735 7.05219
ltoes -7.94648
126
root -15.7605 18.9737 14.8897 188.46 46.0854 -533.274
lowerback 10.8299 0.947893 -2.0808
upperback 17.8344 4.09607 -1.19244
thorax 13.6041 2.90124 0.120432
lowerneck 8.82249 -4.98424 -0.848177
upperneck -13.5201 -5.00252 11.8618
head -5.18044 -3.13638 4.19135
rclavicle -8.34896e-014 6.32135e-014
rhumerus -18.4582 -10.1169 -89.2902
rradius 65.1249
rwrist -0.989859
rhand -19.3798 20.3474
rfingers 7.12502
rthumb 6.93856 -9.51893
lclavicle -8.34896e-014 6.32135e-014
lhumerus -13.0784 -0.944242 87.3746
lradius 65.7125
lwrist -13.1718
lhand -45.6201 -16.57
lfingers 7.12502
lthumb -18.3802 12.5816
rfemur -15.4057 -0.375977 12.7107
rtibia 65.6777
rfoot 7.86403 -0.227071
rtoes -24.0262
lfemur -27.3031 9.88448 -12.4936
ltibia 40.9167
lfoot -9.6262 7.15734
ltoes -7.80124
127
root -15.7316 18.9913 14.805 188.256 46.3365 -533.179
lowerback 10.6945 0.896435 -2.13645
upperback 17.8312 4.01405 -1.20141
thorax 13.6783 2.84739 0.147642
lowerneck 8.95655 -4.89985 -0.935446
upperneck -13.392 -4.89961 11.9351
head -5.16647 -3.08825 4.22328
rclavicle -3.57812e-014 1.51076e-014
rhumerus -18.7234 -10.0646 -89.29
rradius 65.3165
rwrist -1.09624
rhand -19.5444 20.2168
rfingers 7.12502
rthumb 6.77967 -9.65467
lclavicle -3.57812e-014 1.51076e-014
lhumerus -13.1008 -0.787038 87.3573
lradius 65.682
lwrist -13.4233
lhand -45.5282 -16.7727
lfingers 7.12502
lthumb -18.2919 12.3873
rfemur -16.5081 -0.860491 12.664
rtibia 67.7152
rfoot 8.41824 -0.386917
rtoes -23.5595
lfemur -26.4734 9.92702 -12.4788
ltibia 40.6173
lfoot -9.86449 7.28239
ltoes -7.55724
128
root -15.704 19.0061 14.7226 188.095 46.5772 -533.059
lowerback 10.5385 0.820141 -2.1904
upperback 17.8209 3.89302 -1.1972
thorax 13.7548 2.7714 0.188167
lowerneck 9.05011 -4.78583 -1.05246
upperneck -13.2547 -4.7644 11.9935
head -5.14456 -3.02022 4.25173
rclavicle -9.22361e-014 8.66701e-014
rhumerus -18.999 -9.94544 -89.2749
rradius 65.5043
rwrist -1.20858
rhand -19.7737 20.0945
rfingers 7.12502
rthumb 6.55828 -9.78394
lclavicle -9.22361e-014 8.66701e-014
lhumerus -13.1113 -0.550577 87.3448
lradius 65.6526
lwrist -13.6774
lhand -45.47 -16.93
lfingers 7.12502
lthumb -18.2358 12.2352
rfemur -17.6534 -1.40427 12.6357
rtibia 69.7167
rfoot 8.77253 -0.34591
rtoes -23.261
lfemur -25.7043 9.97325 -12.4472
ltibia 40.3498
lfoot -10.0638 7.38243
ltoes -7.29558
